<?xml version="1.0" encoding="utf-8"?>
<!-- Generator: Adobe Illustrator 19.0.0, SVG Export Plug-In . SVG Version: 6.00 Build 0)  -->
<svg version="1.1" id="Layer_1" xmlns="http://www.w3.org/2000/svg" xmlns:xlink="http://www.w3.org/1999/xlink" x="0px" y="0px"
	 viewBox="0 0 422.3 538.1" style="enable-background:new 0 0 422.3 538.1;" xml:space="preserve">
<style type="text/css">
	
		.st0{opacity:0.5;fill:none;stroke:#253D5F;stroke-width:0.15;stroke-linecap:round;stroke-miterlimit:10;enable-background:new    ;}
	.st1{fill:none;stroke:#253D5F;stroke-width:0.26;stroke-linecap:round;stroke-miterlimit:10;}
	.st2{fill:none;stroke:#253D5F;stroke-width:0.51;stroke-linecap:round;stroke-miterlimit:10;}
	.st3{fill:none;stroke:#253D5F;stroke-width:1.03;stroke-linecap:round;stroke-miterlimit:10;}
	.st4{fill:none;stroke:#253D5F;stroke-width:0.15;stroke-linecap:round;stroke-miterlimit:10;}
	.st5{fill:none;stroke:#253D5F;}
</style>
<path class="st0" d="M143.1,291l276-75"/>
<path class="st1" d="M364.1,145l58,105"/>
<path class="st1" d="M422.1,368l-176,164"/>
<path class="st1" d="M422.1,361l-176,141"/>
<path class="st1" d="M0.1,277l133-50"/>
<path class="st1" d="M364.1,295l-247-68"/>
<path class="st1" d="M0.1,370l142,46"/>
<path class="st1" d="M268.1,502L0.1,383"/>
<path class="st1" d="M268.1,532L0.1,395"/>
<path class="st1" d="M258.1,278l164,34"/>
<path class="st1" d="M275.1,279l-275,38"/>
<path class="st1" d="M0.1,369l283,78"/>
<path class="st1" d="M262.1,447l160-95"/>
<path class="st1" d="M390.1,156L0.1,295"/>
<path class="st1" d="M142.1,325l-142,3"/>
<path class="st1" d="M117.1,325l305,5"/>
<path class="st1" d="M125.1,416l297-76"/>
<path class="st0" d="M364.1,142l58,104"/>
<path class="st0" d="M422.1,364l-176,165"/>
<path class="st0" d="M422.1,358l-176,141"/>
<path class="st0" d="M0.1,273l133-49"/>
<path class="st0" d="M364.1,292l-247-68"/>
<path class="st0" d="M0.1,368l142,44"/>
<path class="st0" d="M268.1,499L0.1,380"/>
<path class="st0" d="M268.1,529L0.1,393"/>
<path class="st0" d="M258.1,275l164,34"/>
<path class="st0" d="M275.1,276l-275,38"/>
<path class="st0" d="M0.1,365l283,78"/>
<path class="st0" d="M262.1,443l160-95"/>
<path class="st0" d="M390.1,152L0.1,291"/>
<path class="st0" d="M142.1,322l-142,3"/>
<path class="st0" d="M117.1,322l305,5"/>
<path class="st0" d="M125.1,412l297-75"/>
<path class="st0" d="M364.1,148l58,104"/>
<path class="st0" d="M422.1,369l-176,166"/>
<path class="st0" d="M422.1,364l-176,140"/>
<path class="st0" d="M0.1,279l133-49"/>
<path class="st0" d="M364.1,298l-247-68"/>
<path class="st0" d="M0.1,373l142,45"/>
<path class="st0" d="M268.1,504L0.1,386"/>
<path class="st0" d="M268.1,535L0.1,398"/>
<path class="st0" d="M258.1,281l164,34"/>
<path class="st0" d="M275.1,282l-275,36"/>
<path class="st0" d="M0.1,370l283,78"/>
<path class="st0" d="M262.1,448l160-94"/>
<path class="st0" d="M390.1,158L0.1,297"/>
<path class="st0" d="M142.1,327l-142,3"/>
<path class="st0" d="M117.1,327l305,6"/>
<path class="st0" d="M125.1,418l297-75"/>
<path class="st1" d="M5.1,275.5v122.6l4,1.9V274L5.1,275.5z"/>
<path class="st1" d="M9.1,274l4,0.9v123.8l-4,1.3"/>
<path class="st1" d="M134.1,413V232l9,2.4v176.4L134.1,413z"/>
<path class="st1" d="M134.1,232l-8,2.6v175.8l8,2.6V232z"/>
<path class="st1" d="M269.1,443V281l-9,1.1v158.4L269.1,443z"/>
<path class="st1" d="M269.1,281l7,1.7v155.5l-7,4.8V281z"/>
<path class="st2" d="M373.1,162v253l4-4.6V170.7L373.1,162z"/>
<path class="st2" d="M373.1,162l-8,2.7V414l8,1.1V162z"/>
<path class="st1" d="M414.1,236.2v138.1l-3,2.7V231L414.1,236.2z"/>
<path class="st1" d="M411.1,231l-5,1.5V377h5"/>
<path class="st1" d="M233.1,212.3v181.5l6,1.2V210L233.1,212.3z"/>
<path class="st1" d="M239.1,210l7,3.6v178.3l-7,3.1V210z"/>
<path class="st1" d="M378.1,416l-378-53"/>
<path class="st2" d="M406.1,404l-62-6.5V295"/>
<path class="st3" d="M5.1,0.5v385.1L254.9,496l118.2-95.3l-28.4-2.9L269.7,442V280.2l-120.5,16.2V409"/>
<path class="st3" d="M126.1,230v96.3h8.1v87.3l14.5-3.7l44.4,12.1"/>
<path class="st3" d="M44,384.8l-30.8,4.4v-61.3l30.2-0.9L44,384.8z M44,384.8l90.2,28.3"/>
<path class="st3" d="M5.1,385v12.9l248,127.1v-29.6"/>
<path class="st3" d="M254.2,525l159.9-150.3V236.6L372.3,162l-139,49.9v47.7l-106.8-29.7L5.1,275.5"/>
<path class="st3" d="M233.1,260v25"/>
<path class="st3" d="M269.1,281l74.6,15.2l0.4,100.8"/>
<path class="st3" d="M126.1,325l-83,2"/>
<path class="st4" d="M9.1,240v200"/>
<path class="st4" d="M126.1,202v298"/>
<path class="st4" d="M134.1,206v303"/>
<path class="st4" d="M232.1,199v339"/>
<path class="st4" d="M181.1,179v254"/>
<path class="st4" d="M414.1,208v196"/>
<path class="st4" d="M269.1,257v197"/>
<path class="st4" d="M0.1,263l389-155"/>
<path class="st4" d="M422.1,231l-71-123"/>
<line class="st5" x1="232.6" y1="229" x2="232.6" y2="1"/>
<line class="st5" x1="125.6" y1="229" x2="125.6" y2="1"/>
<line class="st5" x1="372.6" y1="415" x2="372.6" y2="1"/>
</svg>
