<?xml version="1.0" encoding="utf-8"?>
<!-- Generator: Adobe Illustrator 19.0.0, SVG Export Plug-In . SVG Version: 6.00 Build 0)  -->
<svg version="1.1" id="Layer_1" xmlns="http://www.w3.org/2000/svg" xmlns:xlink="http://www.w3.org/1999/xlink" x="0px" y="0px"
	 viewBox="72 14 756 766" style="enable-background:new 72 14 756 766;" xml:space="preserve">
<style type="text/css">
	.st0{fill:none;stroke:#C39443;}
	.st1{fill:none;stroke:#C39443;stroke-width:0.7;stroke-linecap:round;stroke-miterlimit:10;}
	.st2{fill:none;stroke:#C39443;stroke-width:0.59;stroke-linecap:round;stroke-miterlimit:10;}
	.st3{fill:none;stroke:#C39443;stroke-width:0.58;stroke-linecap:round;stroke-miterlimit:10;}
	.st4{fill:none;stroke:#C39443;stroke-width:0.37;stroke-linecap:round;stroke-miterlimit:10;}
	.st5{fill:none;stroke:#C39443;stroke-width:0.55;stroke-linecap:round;stroke-miterlimit:10;}
	.st6{fill:none;stroke:#C39443;stroke-width:0.5;stroke-linecap:round;stroke-miterlimit:10;}
	.st7{fill:none;stroke:#C39443;stroke-width:0.23;stroke-miterlimit:10;}
	.st8{fill:none;stroke:#C39443;stroke-width:0.54;stroke-linecap:round;stroke-miterlimit:10;}
	.st9{fill:none;stroke:#C39443;stroke-width:0.49;stroke-linecap:round;stroke-miterlimit:10;}
	.st10{fill:none;stroke:#C39443;stroke-width:0.7;stroke-linecap:round;stroke-linejoin:round;}
	.st11{fill:none;stroke:#C39443;stroke-width:0.68;stroke-linecap:round;stroke-miterlimit:10;}
	.st12{fill:none;stroke:#C39443;stroke-width:0.23;stroke-linecap:round;stroke-miterlimit:10;}
	.st13{opacity:0.5;}
	.st14{fill:#FFFFFF;}
	.st15{fill:#FFFFFF;filter:url(#Adobe_OpacityMaskFilter);}
	.st16{mask:url(#path-278-inside-1);fill:#C39443;}
	.st17{fill:#FFFFFF;filter:url(#Adobe_OpacityMaskFilter_1_);}
	.st18{mask:url(#path-280-inside-2);fill:#C39443;}
	.st19{fill:#FFFFFF;filter:url(#Adobe_OpacityMaskFilter_2_);}
	.st20{mask:url(#path-282-inside-3);fill:#C39443;}
	.st21{opacity:0.5;fill:#FFFFFF;stroke:#C39443;enable-background:new    ;}
	.st22{fill:#FFFFFF;filter:url(#Adobe_OpacityMaskFilter_3_);}
	.st23{mask:url(#path-285-inside-4);fill:#C39443;}
</style>
<path class="st0" d="M244,14v315"/>
<path class="st0" d="M113,353v126"/>
<path class="st0" d="M827,479H113"/>
<path class="st1" d="M236.9,132v197.2"/>
<path class="st1" d="M252.8,133.5v195.8"/>
<path class="st1" d="M104.4,348.9c1.2-0.1,139.8-20.8,139.8-20.8l228.4,31.6v1.4l-228.5-29.2l-139.7,18.8V348.9z"/>
<path class="st2" d="M105.5,350.4c1.2-0.1,138.6-18.6,138.6-18.6l227.4,29.1v1.4L244,335.5L105.5,352V350.4z"/>
<path class="st3" d="M107.7,351.8c1.1-0.1,136.2-16.3,136.2-16.3L469.2,362v1.3l-225.4-24.2l-136.1,14.3V351.8z"/>
<path class="st3" d="M113.2,352.8v8.2l130.2-14.9l225.9,23v-5.8l-225.4-24.2L113.2,352.8z"/>
<path class="st4" d="M113.2,361.1h6.1l124.1-13.3l225.9,21.4l-225.9-23L113.2,361.1z"/>
<path class="st4" d="M234.7,348.6v3.5h1.5v67.9l6.7,0.4l8.4-0.6v-67.1h1.6v-4.2l-9.5-0.9L234.7,348.6z"/>
<path class="st4" d="M115.3,366l128.1-10.8l7.9,0.7"/>
<path class="st4" d="M115.3,367.2L243.3,357l7.9,0.7"/>
<path class="st4" d="M236.2,413.9h6.9h8.1"/>
<path class="st4" d="M243.3,357v56.9"/>
<path class="st4" d="M236.2,419l-121.4-3.6"/>
<path class="st4" d="M205.8,351.7V418l-2.6,0.7v-62.5c0,0-2.1-2.8-1.3-5.4L205.8,351.7z"/>
<path class="st4" d="M196,351.7c-0.8,2.6,1.3,5.4,1.3,5.4v61.4l5.9,0.3"/>
<path class="st5" d="M171.6,355.4v61.7l-2.4,0.7v-58.1c0,0-1.9-2.6-1.2-5L171.6,355.4z"/>
<path class="st5" d="M163.7,355.4c-0.7,2.5,1.2,5,1.2,5v57.1l4.1,0.1"/>
<path class="st5" d="M171.6,355.4v61.7l-2.4,0.7v-58.1c0,0-1.9-2.6-1.2-5L171.6,355.4z"/>
<path class="st5" d="M163.7,355.4c-0.7,2.5,1.2,5,1.2,5v57.1l4.1,0.1"/>
<path class="st6" d="M142.3,358.6v57.7l-2,0.7v-54.2c-0.9-1.3-1.3-3-1-4.6L142.3,358.6z"/>
<path class="st6" d="M135.8,358.5c-0.2,1.7,0.1,3.5,1,5v53.2l3.4,0.1"/>
<path class="st7" d="M119.6,361v54.5l-1.9,0.7v-51.1c-0.4-0.6-0.8-1.4-0.9-2.1c-0.2-0.8-0.2-1.5,0-2.3L119.6,361z"/>
<path class="st7" d="M114.4,416l3.2,0.1"/>
<path class="st7" d="M205.8,413.5l-91.4-1.2"/>
<path class="st4" d="M408.5,369.3l-157.2-13.4"/>
<path class="st4" d="M469.2,374.5l-34.1-2.9"/>
<path class="st4" d="M408.5,370.7l-157.2-13"/>
<path class="st4" d="M469.2,375.7l-34.1-2.8"/>
<path class="st4" d="M251.4,419l217.8-7.7v-42.1"/>
<path class="st2" d="M300.3,353.1v64.4l2.6,0.7v-60.6c0,0,2.1-2.7,1.3-5.3L300.3,353.1z"/>
<path class="st2" d="M310.1,352.4c0.7,2.6-1.3,6-1.3,6v59.5l-5.9,0.3"/>
<path class="st8" d="M345.2,357.5v58.4l2.4,0.6v-54.8c0,0,1.9-2.3,1.2-4.6L345.2,357.5z"/>
<path class="st8" d="M352.9,357.3c0.7,2.3-1.2,4.8-1.2,4.8v54.2l-4.1,0.1"/>
<path class="st9" d="M377.8,360.5v54.3l2,0.6v-51c0.5-0.6,0.8-1.2,1-1.9c0.2-0.7,0.2-1.4,0-2.2L377.8,360.5z"/>
<path class="st9" d="M384.2,360.4c0.1,0.8,0.1,1.5-0.1,2.3c-0.2,0.7-0.5,1.4-1,2v50.5l-3.4,0.1"/>
<path class="st7" d="M435.1,409.9l34.1-0.7"/>
<path class="st7" d="M251.3,413.9l157.2-3.4"/>
<path class="st10" d="M108.5,210.5L243.3,118L463,264.5v2.9L243.3,122.3l-134.8,91.1V210.5z"/>
<path class="st4" d="M108.5,213.4h4.6l130.2-85.6l215.6,139.7h4.1"/>
<path class="st4" d="M113.2,213.4v134.3"/>
<path class="st4" d="M458.9,267.5v90.4"/>
<path class="st4" d="M138.3,193.3V344"/>
<path class="st4" d="M141.6,343.5V191l2.9,1.8v150.4"/>
<path class="st1" d="M108.5,213.5v134.8"/>
<path class="st4" d="M111.9,347.9V211.3l2.9,1.1v134.9"/>
<path class="st11" d="M165.4,174.8V340"/>
<path class="st11" d="M169.8,339.3V172l3.8,1.7v165.1"/>
<path class="st11" d="M198.7,152.3v182.3"/>
<path class="st11" d="M203.1,334.4V149.4l3.8,2.4v182"/>
<path class="st4" d="M383.9,215.1v132.3"/>
<path class="st4" d="M380.5,347V212.8l-2.9,2.1v131.7"/>
<path class="st4" d="M413.7,234.7v116.9"/>
<path class="st4" d="M410.3,351.1V232.6l-2.9,1.4v116.7"/>
<path class="st4" d="M435.1,248.7v105.8"/>
<path class="st4" d="M431.8,354.1V246.6l-2.9,1.4v105.6"/>
<path class="st1" d="M463,267.1v91.3"/>
<path class="st4" d="M459.6,357.9v-92.9l-2.9,1.4v91.2"/>
<path class="st11" d="M350.5,193.1v149.7"/>
<path class="st11" d="M346.1,342.2v-152l-3.8,1.7v149.8"/>
<path class="st11" d="M308.4,165.3V337"/>
<path class="st11" d="M304.1,336.4v-174l-3.8,2.4v171.1"/>
<path class="st7" d="M450.7,367.4v44.7l1.9,0.6v-41.1c0.5-0.5,0.8-1.2,1-1.9c0.2-0.7,0.2-1.4,0-2.1L450.7,367.4z"/>
<path class="st7" d="M456.8,367.9c0.2,0.7,0.2,1.4,0,2.1s-0.5,1.3-1,1.9v40.7l-3.2,0.1"/>
<path class="st7" d="M136.9,377.9l-17.2,0.9"/>
<path class="st7" d="M136.9,404l-17.2-0.4"/>
<path class="st7" d="M136.9,405.5h-17.2"/>
<path class="st7" d="M121.6,378.8v24.9"/>
<path class="st7" d="M142.3,403.8l22.8-0.2"/>
<path class="st7" d="M142.3,405.1l22.8-0.1"/>
<path class="st7" d="M142.3,377.5l22.8-0.9"/>
<path class="st7" d="M144.8,377.4l0.1,26.4"/>
<path class="st7" d="M171.6,376.4l26.1-0.7"/>
<path class="st7" d="M171.6,403.4l25.4-0.2"/>
<path class="st7" d="M171.6,404.8l25.8-0.1"/>
<path class="st7" d="M174.1,376.3V403"/>
<path class="st7" d="M205.8,374.9l30.4-0.4"/>
<path class="st7" d="M219.6,374.7v43.8"/>
<path class="st7" d="M208,377h9.5v29.5h-9L208,377z"/>
<path class="st7" d="M221.4,377v29.5h12.7v-29.8L221.4,377z"/>
<path class="st7" d="M300.3,408.2l-49,1"/>
<path class="st7" d="M251.4,406.5l48.9-0.7"/>
<path class="st7" d="M251.4,373.7l48.9,0.8"/>
<path class="st7" d="M298.2,374.1v31.7"/>
<path class="st7" d="M308.8,374.5l36,1.2"/>
<path class="st7" d="M308.8,405.4l36.4-0.2"/>
<path class="st7" d="M308.8,407.5l36.4-0.2"/>
<path class="st7" d="M342.9,375.7v29.5"/>
<path class="st7" d="M351.7,405.2h26"/>
<path class="st7" d="M351.7,407.5l26-0.3"/>
<path class="st7" d="M351.7,375.7l26,0.7"/>
<path class="st7" d="M376.1,376.3v28.9"/>
<path class="st4" d="M408.5,363.4v50.1"/>
<path class="st4" d="M435.1,365.7v46.8"/>
<path class="st7" d="M413.1,413.3v-44.6l18.1,1.4v42.4"/>
<path class="st7" d="M383.2,405.2h25.3"/>
<path class="st7" d="M383.2,407.2l25.3-0.3"/>
<path class="st7" d="M383.2,376.3l25.3,1.3"/>
<path class="st7" d="M406.7,377.5v27.7"/>
<path class="st7" d="M435.1,378.9l15.5,0.8"/>
<path class="st7" d="M435.1,404.4h15.5"/>
<path class="st7" d="M435.1,405.6l15.5-0.2"/>
<path class="st7" d="M449.1,379.6v24.5"/>
<path class="st4" d="M132.1,217.3v21.8"/>
<path class="st4" d="M132.1,248.9v21.8"/>
<path class="st4" d="M132.1,283.1v21.8"/>
<path class="st4" d="M132.1,314.9v21.8"/>
<path class="st7" d="M429,412.7v-42.8"/>
<path class="st7" d="M255.4,362.1l-0.5,8.5l41,0.7v-7.5L255.4,362.1z"/>
<path class="st7" d="M232.7,362.1v8.5c0,0-23.6,1-23.3,0.7c0.3-0.3-0.2-6.9,0-7.2C209.6,363.8,232.7,362.1,232.7,362.1z"/>
<path class="st7" d="M193.9,373l-19.2,1.1V366l19.2-2.7V373z"/>
<path class="st7" d="M161.9,374.1l-17,0.6l-0.3-7l17.3-1V374.1z"/>
<path class="st7" d="M134.4,376.3l-12.8,0.4l-0.3-6.7l13.1-1.3V376.3z"/>
<path class="st7" d="M311.2,371.4l31.1,1.5v-5.1l-31.1-2.5V371.4z"/>
<path class="st7" d="M355,373l20.3,1v-4.2l-20.3-1.2V373z"/>
<path class="st7" d="M385.4,374.5l20.4,1.2v-3.5l-20.4-1.6V374.5z"/>
<path class="st7" d="M436.9,377.5l11.7,0.7v-2.5l-11.7-0.6V377.5z"/>
<path class="st4" d="M393.5,218.2v-10.7l-8.6-8.2v13.1"/>
<path class="st4" d="M384.8,199.3l-8.7,6.8"/>
<path class="st12" d="M138.3,213.5l-7.8,4.8v21.6l7.8-3.7"/>
<path class="st12" d="M125.6,242.2v-21.5l-8.6,4.5v20.9L125.6,242.2z"/>
<path class="st12" d="M118.5,224.4v21.1"/>
<path class="st12" d="M165.4,197.6l-7.9,5v23.5l7.9-4"/>
<path class="st12" d="M155.7,203.6V227l-8.2,3.7v-22.1L155.7,203.6z"/>
<path class="st12" d="M148.8,207.8v22.3"/>
<path class="st12" d="M159.1,201.6l0,23.7"/>
<path class="st12" d="M184.9,186.1l-10.1,6.3v24.7l10.7-5.8L184.9,186.1z"/>
<path class="st12" d="M198.7,204.5l-11.2,5.7v-25.7l11.2-7"/>
<path class="st12" d="M176,191.6v24.7"/>
<path class="st12" d="M188.9,183.6v25.8"/>
<path class="st12" d="M209.4,171.1v27.8l10.2-5.6v-28.7L209.4,171.1z"/>
<path class="st12" d="M235.3,184.3l-12.5,7.2v-29.1l12.5-8.5V184.3z"/>
<path class="st12" d="M210.6,170.3v28.1"/>
<path class="st12" d="M223.9,161.6v29.1"/>
<path class="st12" d="M138.3,245.8l-7.8,3.8v21.6l7.8-2.8"/>
<path class="st12" d="M125.6,273v-21.5L117,255v20.9L125.6,273z"/>
<path class="st12" d="M118.5,254.3v21.1"/>
<path class="st12" d="M165.4,233.1l-7.9,4.1v23.5l7.9-3.1"/>
<path class="st12" d="M155.7,237.9v23.4l-8.2,2.7V242L155.7,237.9z"/>
<path class="st12" d="M148.8,241.3v22.3"/>
<path class="st12" d="M159.1,236.4l0,23.7"/>
<path class="st12" d="M184.9,224l-10.1,5v24.7l10.7-4.6L184.9,224z"/>
<path class="st12" d="M198.7,244l-11.2,4.3v-25.7l11.2-5.6"/>
<path class="st12" d="M176,228.4v24.7"/>
<path class="st12" d="M188.9,222v25.8"/>
<path class="st12" d="M209.4,211.9v27.8l10.2-4.4v-28.7L209.4,211.9z"/>
<path class="st12" d="M235.3,228.2l-12.5,5.7v-29.1l12.5-7V228.2z"/>
<path class="st12" d="M210.6,211.2v28.1"/>
<path class="st12" d="M223.9,204.2v29.1"/>
<path class="st12" d="M138.3,281l-7.8,2.6v21.6l7.8-1.6"/>
<path class="st12" d="M125.6,306.2v-21.5l-8.6,2.1v20.9L125.6,306.2z"/>
<path class="st12" d="M118.5,286.5v21.1"/>
<path class="st12" d="M165.4,272.6l-7.9,2.8v23.5l7.9-1.8"/>
<path class="st12" d="M155.7,275.9v23.4l-8.2,1.4v-22.1L155.7,275.9z"/>
<path class="st12" d="M148.8,278.2v22.3"/>
<path class="st12" d="M159.1,274.8l0,23.7"/>
<path class="st12" d="M184.9,266.5l-10.1,3.5v24.7l10.7-2.9L184.9,266.5z"/>
<path class="st12" d="M198.7,288.7l-11.2,2.6v-25.7l11.2-3.9"/>
<path class="st12" d="M176,269.5v24.7"/>
<path class="st12" d="M188.9,265.1v25.8"/>
<path class="st12" d="M209.4,258.2V286l10.2-2.8v-28.7L209.4,258.2z"/>
<path class="st12" d="M235.3,278.6l-12.5,3.7v-29.1l12.5-5V278.6z"/>
<path class="st12" d="M210.6,257.8v28.1"/>
<path class="st12" d="M223.9,252.8v29.1"/>
<path class="st12" d="M138.3,312.9l-7.8,2.5V337l7.8-1.4"/>
<path class="st12" d="M125.6,337.8v-21.5l-8.6,1.9v20.9L125.6,337.8z"/>
<path class="st12" d="M118.5,317.9V339"/>
<path class="st12" d="M165.4,307.6l-7.9,2.4v23.5l7.9-1.4"/>
<path class="st12" d="M155.7,310.4v23.4l-8.2,1v-22.1L155.7,310.4z"/>
<path class="st12" d="M148.8,312.3v22.3"/>
<path class="st12" d="M159.1,309.5l0,23.7"/>
<path class="st12" d="M184.9,303.9l-10.1,2.4v24.7l10.7-1.8L184.9,303.9z"/>
<path class="st12" d="M198.7,327.5l-11.2,1.4v-25.7l11.2-2.8"/>
<path class="st12" d="M176,306.1v24.7"/>
<path class="st12" d="M188.9,302.9v25.8"/>
<path class="st12" d="M209.4,298.1v27.8l10.2-1.7v-28.7L209.4,298.1z"/>
<path class="st12" d="M235.3,321.2l-12.5,2.4v-29.1l12.5-3.8V321.2z"/>
<path class="st12" d="M210.6,297.8v28.1"/>
<path class="st12" d="M223.9,294.2v29.1"/>
<path class="st12" d="M326.1,194l13.4,8.8l0.2,23.5l-14.1-8.1L326.1,194z"/>
<path class="st12" d="M308.1,208.2l14.8,8.4l-0.2-25l-14.2-9.7"/>
<path class="st12" d="M337.8,201.8l0.2,23.4"/>
<path class="st12" d="M320.8,190.4l0.2,25.1"/>
<path class="st12" d="M326.4,230.6l13.3,7l0.2,23.5l-14.1-6.1L326.4,230.6z"/>
<path class="st12" d="M308.4,247.5l14.7,6.3l-0.2-25l-14.8-8.2"/>
<path class="st12" d="M338.1,236.8l0.2,23.5"/>
<path class="st12" d="M321.1,227.8l0.2,25.1"/>
<path class="st12" d="M326.7,271.7l13.3,4.7l0.2,23.5l-14-3.7L326.7,271.7z"/>
<path class="st12" d="M308.8,291.8l14.7,3.7l-0.2-25l-14.7-5.5"/>
<path class="st12" d="M338.4,275.8l0.2,23.4"/>
<path class="st12" d="M321.5,269.8l0.2,25.1"/>
<path class="st12" d="M383.9,229.2l7.6,5.1v19.4l-7.6-4.1"/>
<path class="st12" d="M396.3,256.1v-19.2l8.5,4.9v18.6L396.3,256.1z"/>
<path class="st12" d="M403.3,241v18.7"/>
<path class="st12" d="M390,233.2v19.5"/>
<path class="st12" d="M383.9,258.2l7.6,4.2v19.4l-7.6-3.1"/>
<path class="st12" d="M396.3,283.6v-19.2l8.5,3.9v18.6L396.3,283.6z"/>
<path class="st12" d="M403.3,267.6v18.7"/>
<path class="st12" d="M390,261.5V281"/>
<path class="st12" d="M383.9,289.8l7.6,3v19.4l-7.6-1.9"/>
<path class="st12" d="M396.3,313.3v-19.2l8.5,2.5v18.6L396.3,313.3z"/>
<path class="st12" d="M403.3,296.2v18.7"/>
<path class="st12" d="M390,292.2v19.5"/>
<path class="st12" d="M383.9,318.4l7.6,2.7v19.4l-7.6-1.7"/>
<path class="st12" d="M396.3,341.5v-19.2l8.5,2.2v18.6L396.3,341.5z"/>
<path class="st12" d="M403.3,324.2v18.7"/>
<path class="st12" d="M390,320.6v19.5"/>
<path class="st12" d="M413.7,248.4l5,3.3l0,17.2l-5-2.5"/>
<path class="st12" d="M421.8,270.5v-17.1l5.5,3.3v16.7L421.8,270.5z"/>
<path class="st12" d="M426.4,256.1v16.8"/>
<path class="st12" d="M417.7,251v17.3"/>
<path class="st12" d="M413.7,273.9l5,2.7v17.2l-5-1.9"/>
<path class="st12" d="M421.8,295v-17.1l5.5,2.5v16.7L421.8,295z"/>
<path class="st12" d="M426.4,280v16.8"/>
<path class="st12" d="M417.7,276.1v17.3"/>
<path class="st12" d="M413.7,301.8l5,1.8v17.2l-5-1.1"/>
<path class="st12" d="M421.8,321.5v-17.1l5.5,1.5l0,16.7L421.8,321.5z"/>
<path class="st12" d="M426.4,305.6v16.8"/>
<path class="st12" d="M417.7,303.3l0,17.3"/>
<path class="st12" d="M413.7,327l5,1.8v17.2l-5-1.1"/>
<path class="st12" d="M421.8,346.7v-17.1l5.5,1.5v16.7L421.8,346.7z"/>
<path class="st12" d="M426.4,330.8v16.8"/>
<path class="st12" d="M417.6,328.5v17.3"/>
<path class="st12" d="M435.2,258.7l7.1,5.2l0,15.8l-7.1-4.2"/>
<path class="st12" d="M446.8,282.2v-15.5l8,5v14.9L446.8,282.2z"/>
<path class="st12" d="M453.4,270.8v15"/>
<path class="st12" d="M440.9,262.8v15.9"/>
<path class="st12" d="M435.2,282.6l7.1,4.2v15.8l-7.1-3.2"/>
<path class="st12" d="M446.8,304.4v-15.5l8,3.9l0,14.9L446.8,304.4z"/>
<path class="st12" d="M453.4,292.1l0,15"/>
<path class="st12" d="M440.9,285.9v15.9"/>
<path class="st12" d="M435.2,308.6l7.1,2.9v15.8l-7.1-1.9"/>
<path class="st12" d="M446.8,328.4v-15.5l7.9,2.5v14.9L446.8,328.4z"/>
<path class="st12" d="M453.4,315v15"/>
<path class="st12" d="M440.9,311v15.9"/>
<path class="st12" d="M435.2,332.2l7.1,2.4v15.8l-7.1-1.4"/>
<path class="st12" d="M446.8,351.3v-15.5l7.9,2v14.9L446.8,351.3z"/>
<path class="st12" d="M453.4,337.4v15"/>
<path class="st12" d="M440.9,334.2v15.9"/>
<path class="st12" d="M350.2,211.3l11.4,7.2l0.1,21.3l-11.4-6"/>
<path class="st12" d="M364.2,219.9l0.1,21.2l11.8,5.5L376,227L364.2,219.9z"/>
<path class="st12" d="M374.2,225.9l0.1,19.9"/>
<path class="st12" d="M359.4,217.1l0.1,21.6"/>
<path class="st12" d="M350.3,244l11.4,5.8l0.1,21.3l-11.4-4.6"/>
<path class="st12" d="M364.4,251l0.1,21.2l11.8,4.2l-0.1-19.6L364.4,251z"/>
<path class="st12" d="M374.3,255.8l0.1,19.9"/>
<path class="st12" d="M359.5,248.7l0.1,21.6"/>
<path class="st12" d="M350.4,280.3l11.4,4.2l0.1,21.3l-11.4-3"/>
<path class="st12" d="M364.5,285.2l0.1,21.2l11.8,2.5l-0.1-19.6L364.5,285.2z"/>
<path class="st12" d="M374.4,288.6l0.1,19.8"/>
<path class="st12" d="M359.6,283.7l0.1,21.6"/>
<path class="st12" d="M350.5,312.5l11.4,3.3l0.1,21.3l-11.4-2.1"/>
<path class="st12" d="M364.6,316.4l0.1,21.2l11.8,1.6l-0.1-19.6L364.6,316.4z"/>
<path class="st12" d="M374.5,319.1l0.1,19.9"/>
<path class="st12" d="M359.7,315.2l0.1,21.6"/>
<path class="st12" d="M327,308l13.3,3l0.2,23.5l-14-2L327,308z"/>
<path class="st12" d="M309.1,330.4l14.7,1.8l-0.2-25l-14.7-3.6"/>
<path class="st12" d="M338.7,310.6l0.2,23.5"/>
<path class="st12" d="M321.7,306.7l0.2,25.1"/>
<path class="st12" d="M297.6,179.3l0.1,26.8l-16.8-8.7l-0.1-28.3L297.6,179.3z"/>
<path class="st12" d="M255.1,183.1l20.6,11.5l-0.1-28.8l-20.5-13.5L255.1,183.1z"/>
<path class="st12" d="M295.6,178l0.1,27.2"/>
<path class="st12" d="M273.8,164.6l0.1,28.8"/>
<path class="st12" d="M297.7,218.6l0.1,26.8l-16.8-6.7l-0.1-28.3L297.7,218.6z"/>
<path class="st12" d="M255.2,227.5l20.5,9l-0.1-28.8l-20.5-11L255.2,227.5z"/>
<path class="st12" d="M295.6,217.6l0.1,27.2"/>
<path class="st12" d="M273.9,206.8l0.1,28.8"/>
<path class="st12" d="M297.8,263.3l0.1,26.8l-16.8-4.3l-0.1-28.3L297.8,263.3z"/>
<path class="st12" d="M255.3,278.5l20.5,5.9l-0.1-28.8l-20.5-7.9L255.3,278.5z"/>
<path class="st12" d="M295.7,262.6l0.1,27.2"/>
<path class="st12" d="M274,254.9l0.1,28.8"/>
<path class="st12" d="M297.8,301.8l0.1,26.8l-16.8-2.5l-0.1-28.3L297.8,301.8z"/>
<path class="st12" d="M255.4,321.6l20.5,3.6l-0.1-28.8l-20.5-5.7L255.4,321.6z"/>
<path class="st12" d="M295.8,301.4l0.1,27.2"/>
<path class="st12" d="M274.1,296l0.1,28.8"/>
<g class="st13">
	<g class="st13">
		<path class="st14" d="M79.7,217.3l21.8-16.7l21.8-16.6l43.7-33.2l43.9-33l21.9-16.5l22-16.4l-21.8,16.7l-21.8,16.6l-43.7,33.2
			l-43.9,33l-21.9,16.5L79.7,217.3z"/>
		<defs>
			<filter id="Adobe_OpacityMaskFilter" filterUnits="userSpaceOnUse" x="79.1" y="84.2" width="176.4" height="133.9">
				<feColorMatrix  type="matrix" values="1 0 0 0 0  0 1 0 0 0  0 0 1 0 0  0 0 0 1 0"/>
			</filter>
		</defs>
		<mask maskUnits="userSpaceOnUse" x="79.1" y="84.2" width="176.4" height="133.9" id="path-278-inside-1">
			<path class="st15" d="M79.7,217.3l21.8-16.7l21.8-16.6l43.7-33.2l43.9-33l21.9-16.5l22-16.4l-21.8,16.7l-21.8,16.6l-43.7,33.2
				l-43.9,33l-21.9,16.5L79.7,217.3z"/>
		</mask>
		<path class="st16" d="M79.7,217.3l-0.6-0.8l1.2,1.6L79.7,217.3z M101.5,200.6l-0.6-0.8l0,0L101.5,200.6z M123.3,184l-0.6-0.8h0
			L123.3,184z M167,150.9l-0.6-0.8l0,0L167,150.9z M210.9,117.9l-0.6-0.8l0,0L210.9,117.9z M232.8,101.4l-0.6-0.8l0,0L232.8,101.4z
			 M254.8,85l0.6,0.8l-1.2-1.6L254.8,85z M233.1,101.7l0.6,0.8l0,0L233.1,101.7z M211.2,118.3l0.6,0.8l0,0L211.2,118.3z
			 M167.5,151.5l0.6,0.8l0,0L167.5,151.5z M123.6,184.4l0.6,0.8L123.6,184.4z M101.7,200.9l0.6,0.8l0,0L101.7,200.9z M80.3,218.1
			l21.8-16.7l-1.2-1.6l-21.8,16.7L80.3,218.1z M102.1,201.4l21.8-16.6l-1.2-1.6l-21.8,16.6L102.1,201.4z M123.9,184.8l43.7-33.2
			l-1.2-1.6l-43.7,33.2L123.9,184.8z M167.6,151.7l43.9-33l-1.2-1.6l-43.9,33L167.6,151.7z M211.5,118.7l21.9-16.5l-1.2-1.6
			l-21.9,16.5L211.5,118.7z M233.4,102.2l22-16.4l-1.2-1.6l-22,16.4L233.4,102.2z M254.2,84.2l-21.8,16.7l1.2,1.6l21.8-16.7
			L254.2,84.2z M232.5,100.9l-21.8,16.6l1.2,1.6l21.8-16.6L232.5,100.9z M210.6,117.5l-43.7,33.2l1.2,1.6l43.7-33.2L210.6,117.5z
			 M166.9,150.7l-43.9,33l1.2,1.6l43.9-33L166.9,150.7z M123,183.6l-21.9,16.5l1.2,1.6l21.9-16.5L123,183.6z M101.1,200.1l-22,16.4
			l1.2,1.6l22-16.4L101.1,200.1z"/>
	</g>
</g>
<g class="st13">
	<g class="st13">
		<path class="st14" d="M198.7,88.3l36.6,24.1l36.5,24.2l73,48.5l72.8,48.7l36.4,24.3l36.3,24.4l-36.6-24.1l-36.5-24.2l-73-48.5
			l-72.8-48.7L235,112.8L198.7,88.3z"/>
		<defs>
			<filter id="Adobe_OpacityMaskFilter_1_" filterUnits="userSpaceOnUse" x="198.1" y="87.5" width="292.7" height="195.9">
				<feColorMatrix  type="matrix" values="1 0 0 0 0  0 1 0 0 0  0 0 1 0 0  0 0 0 1 0"/>
			</filter>
		</defs>
		<mask maskUnits="userSpaceOnUse" x="198.1" y="87.5" width="292.7" height="195.9" id="path-280-inside-2">
			<path class="st17" d="M198.7,88.3l36.6,24.1l36.5,24.2l73,48.5l72.8,48.7l36.4,24.3l36.3,24.4l-36.6-24.1l-36.5-24.2l-73-48.5
				l-72.8-48.7L235,112.8L198.7,88.3z"/>
		</mask>
		<path class="st18" d="M198.7,88.3l0.6-0.8l-1.1,1.7L198.7,88.3z M235.3,112.4l0.6-0.8l0,0L235.3,112.4z M271.7,136.7l0.6-0.8l0,0
			L271.7,136.7z M344.7,185.1l0.6-0.8l0,0L344.7,185.1z M417.5,233.8l-0.6,0.8l0,0L417.5,233.8z M453.9,258.1l0.6-0.8l0,0
			L453.9,258.1z M490.3,282.6l-0.6,0.8l1.1-1.7L490.3,282.6z M453.7,258.4l-0.6,0.8l0,0L453.7,258.4z M417.2,234.2l0.6-0.8l0,0
			L417.2,234.2z M344.3,185.8l-0.6,0.8l0,0L344.3,185.8z M271.5,137.1l-0.6,0.8l0,0L271.5,137.1z M235,112.8l-0.6,0.8l0,0L235,112.8
			z M198.1,89.2l36.6,24.1l1.1-1.7l-36.6-24.1L198.1,89.2z M234.7,113.3l36.5,24.2l1.1-1.7l-36.5-24.2L234.7,113.3z M271.2,137.5
			l73,48.5l1.1-1.7l-73-48.5L271.2,137.5z M344.1,186l72.8,48.7l1.1-1.7l-72.8-48.7L344.1,186z M417,234.6l36.4,24.3l1.1-1.7
			L418.1,233L417,234.6z M453.4,259l36.3,24.4l1.1-1.7l-36.3-24.4L453.4,259z M490.8,281.7l-36.6-24.1l-1.1,1.7l36.6,24.1
			L490.8,281.7z M454.3,257.6l-36.5-24.2l-1.1,1.7l36.5,24.2L454.3,257.6z M417.8,233.4l-73-48.5l-1.1,1.7l73,48.5L417.8,233.4z
			 M344.8,184.9L272,136.3l-1.1,1.7l72.8,48.7L344.8,184.9z M272,136.3l-36.4-24.3l-1.1,1.7l36.4,24.3L272,136.3z M235.6,111.9
			l-36.3-24.4l-1.1,1.7l36.3,24.4L235.6,111.9z"/>
	</g>
</g>
<g class="st13">
	<g class="st13">
		<path class="st14" d="M508.7,409.6l-314.7,33.8l314.6-34.6c0.1,0,0.1,0,0.2,0c0,0,0.1,0,0.1,0.1c0,0,0.1,0.1,0.1,0.1
			c0,0,0,0.1,0,0.1c0,0.1,0,0.2-0.1,0.3C508.9,409.5,508.8,409.5,508.7,409.6L508.7,409.6z"/>
		<defs>
			<filter id="Adobe_OpacityMaskFilter_2_" filterUnits="userSpaceOnUse" x="193.8" y="407.8" width="316.2" height="36.6">
				<feColorMatrix  type="matrix" values="1 0 0 0 0  0 1 0 0 0  0 0 1 0 0  0 0 0 1 0"/>
			</filter>
		</defs>
		<mask maskUnits="userSpaceOnUse" x="193.8" y="407.8" width="316.2" height="36.6" id="path-282-inside-3">
			<path class="st19" d="M508.7,409.6l-314.7,33.8l314.6-34.6c0.1,0,0.1,0,0.2,0c0,0,0.1,0,0.1,0.1c0,0,0.1,0.1,0.1,0.1
				c0,0,0,0.1,0,0.1c0,0.1,0,0.2-0.1,0.3C508.9,409.5,508.8,409.5,508.7,409.6L508.7,409.6z"/>
		</mask>
		<path class="st20" d="M508.7,409.6l0.1,1l0.9-0.1v-0.9H508.7z M193.9,443.4l-0.1-1l0.2,2L193.9,443.4z M508.6,408.8l0.1,1l0,0
			L508.6,408.8z M509,409.1l1-0.1l0,0l0,0L509,409.1z M508.7,409.5l-0.1-1l-0.9,0.1v0.9H508.7z M508.5,408.6l-314.7,33.8l0.2,2
			l314.7-33.8L508.5,408.6z M194,444.4l314.6-34.6l-0.2-2l-314.6,34.6L194,444.4z M508.7,409.7c-0.1,0-0.2,0-0.2,0l0.5-1.9
			c-0.2-0.1-0.4-0.1-0.5,0L508.7,409.7z M508.4,409.7c-0.1,0-0.2-0.1-0.2-0.1l1.2-1.6c-0.1-0.1-0.3-0.2-0.5-0.2L508.4,409.7z
			 M508.2,409.6c-0.1-0.1-0.1-0.1-0.2-0.2l1.8-1c-0.1-0.2-0.2-0.3-0.4-0.4L508.2,409.6z M508.1,409.4c0-0.1-0.1-0.1-0.1-0.2l2-0.2
			c0-0.2-0.1-0.4-0.2-0.5L508.1,409.4z M508,409.2c0-0.2,0-0.3,0.1-0.4l1.6,1.2c0.2-0.3,0.3-0.6,0.3-1L508,409.2z M508.1,408.8
			c0.1-0.1,0.2-0.2,0.4-0.2l0.3,2c0.4,0,0.7-0.2,0.9-0.5L508.1,408.8z M507.7,409.5L507.7,409.5l2,0v0H507.7z"/>
	</g>
</g>
<g class="st13">
	<path class="st21" d="M72.4,416.9L72.4,416.9L72.4,416.9 M72.4,416.9L72.4,416.9 M72.4,416.9l-0.2,0.3 M72.4,416.9L72.4,416.9
		L72.4,416.9L72.4,416.9L72.4,416.9L72.4,416.9 M72.4,416.9l-0.2,0.3 M72.4,416.9L72.4,416.9 M72.2,417.3l0.4-0.2l-0.2,0h0l0,0
		c0,0,0,0,0,0c0,0,0,0,0,0c0,0,0,0,0,0 M72.2,417.3l0.2-0.3l0,0 M72.4,416.9L72.4,416.9l0,0.1l0,0 M72.4,416.9L72.4,416.9l0,0.1
		 M72.4,416.9l0.1,0C72.5,417,72.5,417,72.4,416.9c0,0.1,0,0.1,0,0.1 M72.4,416.9L72.4,416.9L72.4,416.9 M72.4,416.9l-0.3,0.2
		L72.4,416.9 M72.4,416.9L72.4,416.9 M72.4,416.9L72.4,416.9L72.4,416.9z"/>
</g>
<g class="st13">
	<g class="st13">
		<path class="st14" d="M465.7,358.8l0.4-244.1l0.4,244.1c0,0.1,0,0.2-0.1,0.3c-0.1,0.1-0.2,0.1-0.3,0.1c-0.1,0-0.2,0-0.3-0.1
			C465.8,359,465.7,358.9,465.7,358.8L465.7,358.8z"/>
		<defs>
			<filter id="Adobe_OpacityMaskFilter_3_" filterUnits="userSpaceOnUse" x="464.7" y="114.7" width="2.8" height="245.5">
				<feColorMatrix  type="matrix" values="1 0 0 0 0  0 1 0 0 0  0 0 1 0 0  0 0 0 1 0"/>
			</filter>
		</defs>
		<mask maskUnits="userSpaceOnUse" x="464.7" y="114.7" width="2.8" height="245.5" id="path-285-inside-4">
			<path class="st22" d="M465.7,358.8l0.4-244.1l0.4,244.1c0,0.1,0,0.2-0.1,0.3c-0.1,0.1-0.2,0.1-0.3,0.1c-0.1,0-0.2,0-0.3-0.1
				C465.8,359,465.7,358.9,465.7,358.8L465.7,358.8z"/>
		</mask>
		<path class="st23" d="M465.7,358.8v1h1l0-1L465.7,358.8z M466.1,114.7l1,0h-2L466.1,114.7z M466.5,358.8h1v0L466.5,358.8z
			 M465.7,358.8v-1h-1v1H465.7z M466.7,358.8l0.4-244.1l-2,0l-0.4,244.1L466.7,358.8z M465.1,114.7l0.4,244.1l2,0l-0.4-244.1
			L465.1,114.7z M465.5,358.8c0-0.2,0.1-0.3,0.2-0.4l1.4,1.4c0.3-0.3,0.4-0.6,0.4-1H465.5z M465.7,358.4c0.1-0.1,0.3-0.2,0.4-0.2v2
			c0.4,0,0.7-0.1,1-0.4L465.7,358.4z M466.1,358.2c0.2,0,0.3,0.1,0.4,0.2l-1.4,1.4c0.3,0.3,0.6,0.4,1,0.4V358.2z M466.5,358.4
			c0.1,0.1,0.2,0.3,0.2,0.4h-2c0,0.4,0.1,0.7,0.4,1L466.5,358.4z M465.7,359.8L465.7,359.8l0-2h0V359.8z"/>
	</g>
</g>
<g class="st13">
	<path class="st21" d="M94.4,281.2l0-6L94.4,281.2l0,6.2L94.4,281.2L94.4,281.2z"/>
</g>
<path class="st0" d="M303,780V479"/>
<path class="st0" d="M533,479v301"/>
<path class="st0" d="M827,780V479"/>
</svg>
